<mxfile host="app.diagrams.net" modified="2024-01-07T14:27:09.910Z" agent="Mozilla/5.0 (Macintosh; Intel Mac OS X 10_15_7) AppleWebKit/605.1.15 (KHTML, like Gecko) Version/17.2.1 Safari/605.1.15" version="22.1.17" etag="FVK5Fd6HF1kf05XYCAMs" type="github">
  <diagram name="Page-1" id="7_Cxu3rFWSop9AaV6i5s">
    <mxGraphModel>
      <root>
        <mxCell id="0" />
        <mxCell id="1" parent="0" />
      </root>
    </mxGraphModel>
  </diagram>
</mxfile>
